<?xml version="1.0" encoding="UTF-8"?> <svg xmlns="http://www.w3.org/2000/svg" width="64" height="49" viewBox="0 0 64 49" fill="none"><path d="M50.5731 11.483V23.5401C50.5731 24.5971 49.7163 25.4539 48.6593 25.4539C47.6023 25.4539 46.7455 24.5971 46.7455 23.5401V11.483C46.7455 7.26183 43.3113 3.82765 39.0902 3.82765H21.483C17.2618 3.82765 13.8277 7.26183 13.8277 11.483V37.511C13.8277 41.7321 17.2618 45.1663 21.483 45.1663H28.4684C29.5254 45.1663 30.3823 46.0231 30.3823 47.0801C30.3823 48.1372 29.5254 48.994 28.4684 48.994H21.483C15.1513 48.994 10 43.8427 10 37.511V11.483C10 5.15126 15.1513 0 21.483 0H39.0902C45.4219 0 50.5731 5.15126 50.5731 11.483ZM51.2107 29.7936C51.8297 30.6503 51.6369 31.8467 50.78 32.4657C50.78 32.4657 49.4679 33.4918 47.8412 33.4918C47.1237 33.4918 46.4038 33.3423 45.736 33.0245V43.2584C45.736 46.4243 43.1603 48.9999 39.9945 48.9999C36.8286 48.9999 34.253 46.4243 34.253 43.2584C34.253 40.0926 36.8286 37.5169 39.9945 37.5169C40.6654 37.5169 41.3093 37.6337 41.9083 37.8461V32.5298C41.9083 31.2532 42.6001 30.0723 43.7135 29.4482C44.827 28.8239 46.1952 28.8498 47.2842 29.5158C47.4557 29.6207 47.6493 29.6616 47.8411 29.6616C48.2238 29.6616 48.5385 29.3628 48.5385 29.3628C49.3952 28.744 50.5916 28.9368 51.2107 29.7936ZM41.9083 43.2585C41.9083 42.2032 41.0498 41.3447 39.9945 41.3447C38.9392 41.3447 38.0807 42.2032 38.0807 43.2585C38.0807 44.3138 38.9392 45.1723 39.9945 45.1723C41.0498 45.1723 41.9083 44.3138 41.9083 43.2585Z" fill="url(#paint0_linear)"></path><path fill-rule="evenodd" clip-rule="evenodd" d="M20.1 17C20.1 15.9507 20.9507 15.1 22 15.1H38C39.0493 15.1 39.9 15.9507 39.9 17C39.9 18.0493 39.0493 18.9 38 18.9H22C20.9507 18.9 20.1 18.0493 20.1 17ZM20.1 24C20.1 22.9507 20.9507 22.1 22 22.1H38C39.0493 22.1 39.9 22.9507 39.9 24C39.9 25.0493 39.0493 25.9 38 25.9H22C20.9507 25.9 20.1 25.0493 20.1 24ZM20.1 31C20.1 29.9507 20.9507 29.1 22 29.1H38C39.0493 29.1 39.9 29.9507 39.9 31C39.9 32.0493 39.0493 32.9 38 32.9H22C20.9507 32.9 20.1 32.0493 20.1 31Z" fill="url(#paint1_linear)"></path><defs><linearGradient id="paint0_linear" x1="-8.78794" y1="104" x2="207.088" y2="85.3767" gradientUnits="userSpaceOnUse"><stop stop-color="#FF162E"></stop><stop offset="0.520833" stop-color="#E9A91F"></stop><stop offset="1" stop-color="#FFF100"></stop></linearGradient><linearGradient id="paint1_linear" x1="-8.78794" y1="104" x2="207.088" y2="85.3767" gradientUnits="userSpaceOnUse"><stop stop-color="#FF162E"></stop><stop offset="0.520833" stop-color="#E9A91F"></stop><stop offset="1" stop-color="#FFF100"></stop></linearGradient></defs></svg> 