<?xml version="1.0" encoding="UTF-8"?> <svg xmlns="http://www.w3.org/2000/svg" width="64" height="49" viewBox="0 0 64 49" fill="none"><path d="M61 45H55.7V37.7C55.7 37.6 55.7 37.6 55.7 37.5H56.9C59.1 37.5 60.8 35.8 60.8 33.6V25.4C60.8 23.2 59.1 21.5 56.9 21.5H54.7V3.9C54.7 3.8 54.7 3.8 54.7 3.7H58C59 3.7 59.8 2.9 59.8 1.8C59.8 0.7 59 0 58 0H47.7C46.7 0 45.8 0.8 45.8 1.8C45.8 2.8 46.6 3.7 47.7 3.7H51C51 3.8 51 3.8 51 3.9V21.5H47.5V13.1C47.5 10.9 45.8 9.2 43.6 9.2H36.4C34.2 9.2 32.5 10.9 32.5 13.1V13.9C32.1 13.9 31.6 13.8 31.2 13.8C30.8 13.8 30.5 13.8 30.1 13.9V13.1C30.1 10.9 28.4 9.2 26.2 9.2H19C16.8 9.2 15.1 10.9 15.1 13.1V21.5H11.6V3.9C11.6 3.8 11.6 3.8 11.6 3.7H14.9C15.9 3.7 16.7 2.9 16.7 1.8C16.7 0.7 15.9 0 14.9 0H4.8C3.8 0 3 0.9 3 1.9C3 2.9 3.8 3.8 4.9 3.8H8.2C8.2 3.9 8.2 3.9 8.2 4V21.6H5.9C3.7 21.6 2 23.3 2 25.5V33.7C2 35.9 3.7 37.6 5.9 37.6H7.1C7.1 37.7 7.1 37.7 7.1 37.8V45.1H2.8C1.8 45.1 1 45.9 1 47C1 48 1.8 48.8 2.8 48.8H61C62 48.8 62.8 48 62.8 47C62.9 45.8 62 45 61 45ZM52 37.6V44.9H41.8C44.3 43 46.3 40.4 47.4 37.4H52C52 37.5 52 37.6 52 37.6ZM57.1 25.4V33.6C57.1 33.7 57 33.8 56.9 33.8H48.4C48.5 33 48.6 32.1 48.6 31.3C48.6 29.2 48.2 27.1 47.5 25.3H56.9C57 25.2 57.1 25.3 57.1 25.4ZM36.3 13.1C36.3 13 36.4 12.9 36.5 12.9H43.7C43.8 12.9 43.9 13 43.9 13.1V19.2C41.9 17.1 39.3 15.4 36.4 14.5V13.1H36.3ZM45 31.2C45 38.8 38.8 44.9 31.3 44.9C23.8 44.9 17.6 38.8 17.6 31.2C17.6 29 18.1 27 19 25.2H19.1V25C21.4 20.6 26 17.6 31.3 17.6C38.8 17.5 45 23.7 45 31.2ZM19.1 12.9H26.3C26.4 12.9 26.5 13 26.5 13.1V14.5C23.6 15.3 21 16.9 19 19V13.1C18.9 13 19 12.9 19.1 12.9ZM5.7 33.5V25.3C5.7 25.2 5.8 25.1 5.9 25.1H15.1C14.4 27 14 29 14 31.1C14 32 14.1 32.8 14.2 33.6H5.9C5.7 33.7 5.7 33.7 5.7 33.5ZM10.8 37.6C10.8 37.5 10.8 37.5 10.8 37.4H15.1C16.3 40.4 18.2 43 20.7 44.9H10.7V37.6H10.8Z" fill="url(#paint0_linear)"></path><path d="M31.3 38.8999C35.4 38.8999 38.8 35.4999 38.8 31.3999C38.8 27.2999 35.4 23.8999 31.3 23.8999C27.2 23.8999 23.8 27.2999 23.8 31.3999C23.8 35.4999 27.2 38.8999 31.3 38.8999ZM31.3 27.5999C33.4 27.5999 35.1 29.2999 35.1 31.3999C35.1 33.4999 33.4 35.1999 31.3 35.1999C29.2 35.1999 27.5 33.4999 27.5 31.3999C27.5 29.2999 29.2 27.5999 31.3 27.5999Z" fill="url(#paint1_linear)"></path><defs><linearGradient id="paint0_linear" x1="-26.9323" y1="103.575" x2="291.128" y2="62.6156" gradientUnits="userSpaceOnUse"><stop stop-color="#FF162E"></stop><stop offset="0.520833" stop-color="#E9A91F"></stop><stop offset="1" stop-color="#FFF100"></stop></linearGradient><linearGradient id="paint1_linear" x1="-26.9323" y1="103.575" x2="291.128" y2="62.6156" gradientUnits="userSpaceOnUse"><stop stop-color="#FF162E"></stop><stop offset="0.520833" stop-color="#E9A91F"></stop><stop offset="1" stop-color="#FFF100"></stop></linearGradient></defs></svg> 