<?xml version="1.0" encoding="UTF-8"?> <svg xmlns="http://www.w3.org/2000/svg" width="64" height="49" viewBox="0 0 64 49" fill="none"><path d="M52.8 1.88788L51.8 0.887875C50.5 -0.312125 48.5 -0.312125 47.2 0.987875L36.6 11.7879C36.2 12.1879 35.7 12.0879 35.6 11.9879C35.4 11.8879 35 11.6879 35 11.1879C34.9 10.2879 35 9.48787 35.2 8.88787C35.6 7.58787 35.4 6.18787 34.7 5.08787C33.9 3.98787 32.7 3.28788 31.3 3.18788C30.2 3.08788 28.6 3.58787 27.4 5.08787C26.6 6.08787 26 7.38788 25.4 8.58788C24.9 9.68788 24.4 10.7879 23.9 11.2879C23.2 11.9879 21.7 12.5879 20.1 13.2879C18.1 14.0879 15.9 14.9879 14.2 16.4879C12 18.3879 11 20.8879 11 23.8879C11 25.7879 11.4 30.2879 14.5 34.0879C13.4 36.0879 12.6 39.0879 13.5 41.9879C14.2 44.3879 16 46.2879 18.6 47.4879C20.3 48.2879 22 48.5879 23.7 48.5879C26.9 48.5879 30.1 47.3879 33.4 46.1879C37 44.8879 40.6 43.4879 44.8 43.3879C45.9 43.3879 46.7 42.4879 46.7 41.3879C46.7 40.2879 45.8 39.5879 44.8 39.4879C40 39.5879 35.9 41.1879 32.2 42.5879C27.6 44.2879 23.9 45.6879 20.4 43.9879C18.8 43.1879 17.7 42.0879 17.3 40.7879C16.9 39.3879 17.1 37.8879 17.6 36.6879C21.2 39.3879 25.4 39.6879 27.2 39.6879C30.2 39.6879 32.7 38.5879 34.6 36.4879C36.1 34.6879 37 32.4879 37.8 30.4879C38.4 28.8879 39 27.4879 39.7 26.7879C40.2 26.2879 41.3 25.7879 42.4 25.2879C43.6 24.6879 44.9 24.0879 45.9 23.2879C47.4 22.0879 47.8 20.4879 47.8 19.3879C47.7 17.9879 47 16.7879 45.9 15.9879C44.8 15.1879 43.4 14.9879 42.1 15.4879C41.2 15.7879 40.7 16.6879 41 17.5879C41.3 18.4879 42.2 18.9879 43.1 18.6879C43.4 18.5879 43.7 18.5879 44 18.7879C44.3 18.9879 44.5 19.2879 44.5 19.5879C44.5 19.5879 44.5 20.1879 43.9 20.6879C43.2 21.2879 42.1 21.7879 41.1 22.2879C39.7 22.9879 38.3 23.5879 37.4 24.4879C36.2 25.6879 35.5 27.4879 34.7 29.2879C33 33.5879 31.5 36.3879 27.2 36.3879C25.5 36.3879 21.3 36.0879 18.2 32.7879C15 29.6879 14.6 25.4879 14.6 23.7879C14.6 19.4879 17.4 17.9879 21.7 16.2879C23.6 15.4879 25.3 14.7879 26.5 13.5879C27.5 12.6879 28.1 11.2879 28.7 9.88787C29.2 8.88787 29.7 7.78787 30.3 7.08787C30.8 6.38788 31.4 6.48787 31.4 6.48787C31.7 6.48787 32 6.68787 32.2 6.98787C32.4 7.18787 32.4 7.48787 32.3 7.88788C32 8.88787 31.9 10.0879 32 11.4879C32.1 13.1879 33.2 14.5879 34.8 15.1879C36.4 15.7879 38.1 15.3879 39.3 14.1879L49.9 3.38788L50.9 4.38788C51.6 4.98787 52.6 4.98787 53.2 4.28788C53.5 3.58788 53.4 2.48787 52.8 1.88788Z" fill="url(#paint0_linear)"></path><path d="M23 23.5879C22.3 22.8879 21.1 22.8879 20.3 23.5879C19.6 24.2879 19.6 25.4879 20.3 26.2879L24.5 30.4879C25.2 31.1879 26.4 31.1879 27.2 30.4879C27.9 29.7879 27.9 28.5879 27.2 27.7879L23 23.5879Z" fill="url(#paint1_linear)"></path><path d="M29.6 22.9879C30.7046 22.9879 31.6 22.0924 31.6 20.9879C31.6 19.8833 30.7046 18.9879 29.6 18.9879C28.4954 18.9879 27.6 19.8833 27.6 20.9879C27.6 22.0924 28.4954 22.9879 29.6 22.9879Z" fill="url(#paint2_linear)"></path><defs><linearGradient id="paint0_linear" x1="-8.14519" y1="103.125" x2="211.745" y2="83.6313" gradientUnits="userSpaceOnUse"><stop stop-color="#FF162E"></stop><stop offset="0.520833" stop-color="#E9A91F"></stop><stop offset="1" stop-color="#FFF100"></stop></linearGradient><linearGradient id="paint1_linear" x1="-8.14519" y1="103.125" x2="211.745" y2="83.6313" gradientUnits="userSpaceOnUse"><stop stop-color="#FF162E"></stop><stop offset="0.520833" stop-color="#E9A91F"></stop><stop offset="1" stop-color="#FFF100"></stop></linearGradient><linearGradient id="paint2_linear" x1="-8.14519" y1="103.125" x2="211.745" y2="83.6313" gradientUnits="userSpaceOnUse"><stop stop-color="#FF162E"></stop><stop offset="0.520833" stop-color="#E9A91F"></stop><stop offset="1" stop-color="#FFF100"></stop></linearGradient></defs></svg> 