<?xml version="1.0" encoding="UTF-8"?> <svg xmlns="http://www.w3.org/2000/svg" width="37" height="35" viewBox="0 0 37 35" fill="none"><path d="M11.2702 9.91896L11.2689 9.9202L11.2713 9.91771L11.2702 9.91896ZM15.5915 24.4103C15.961 24.4103 16.3305 24.2677 16.6124 23.9825C17.1762 23.412 17.1762 22.4872 16.6124 21.9168L13.0033 18.2652C12.4394 17.6948 11.5253 17.6948 10.9616 18.2652C10.3978 18.8357 10.3978 19.7605 10.9616 20.3309L14.5707 23.9825C14.8526 24.2677 15.2221 24.4103 15.5915 24.4103ZM36.5365 1.61716L35.6433 0.781374C34.4929 -0.29505 32.7293 -0.254663 31.6283 0.873759L22.3956 10.3353C22.0466 10.69 21.6473 10.5932 21.4918 10.5352C21.3398 10.4784 20.982 10.2938 20.9456 9.80729C20.8862 9.0162 20.944 8.29326 21.1081 7.77159C21.4666 6.6325 21.2956 5.42849 20.6386 4.46812C19.9648 3.48313 18.8615 2.85841 17.6872 2.79699C16.7421 2.74696 15.3662 3.15346 14.3364 4.44102C13.6139 5.3445 13.1 6.46497 12.6031 7.54855C12.1665 8.50052 11.7126 9.48734 11.2689 9.9202C10.6435 10.5519 9.34921 11.0905 8.00004 11.64C6.29905 12.3326 4.37104 13.1176 2.82358 14.4691C0.950001 16.1055 0 18.2953 0 20.9778C0 22.8284 0.38654 27.5036 3.9596 30.9938C7.40915 34.6089 12.0301 35 13.8591 35C16.5103 35 18.6748 34.0388 20.2922 32.1431C21.6279 30.5775 22.4039 28.6268 23.0884 26.9058C23.6317 25.5398 24.145 24.2496 24.7698 23.6174C24.7764 23.6108 24.7829 23.604 24.7893 23.5973C25.2166 23.148 26.1904 22.6908 27.1321 22.2487C28.2032 21.746 29.3106 21.226 30.2037 20.4949C31.4763 19.453 31.8775 18.0605 31.8287 17.1047C31.7678 15.9166 31.1504 14.8003 30.1768 14.1186C29.2277 13.454 28.0376 13.281 26.9119 13.6435C26.1522 13.8883 25.7324 14.7099 25.9744 15.4785C26.2164 16.2471 27.028 16.672 27.788 16.4271C28.0661 16.3375 28.317 16.369 28.5337 16.5207C28.7693 16.6856 28.9308 16.9741 28.9452 17.2556C28.9455 17.2605 28.9636 17.7522 28.3875 18.2239C27.7718 18.728 26.8288 19.1706 25.9169 19.5987C24.6846 20.1772 23.5203 20.7238 22.7183 21.5616C21.6826 22.6154 21.0643 24.1698 20.4099 25.8152C18.9049 29.5987 17.6359 32.0787 13.8591 32.0787C12.3963 32.0787 8.70426 31.7737 6.02165 28.9488C6.0083 28.9348 5.99473 28.921 5.98087 28.9076C3.18876 26.1933 2.88732 22.4579 2.88732 20.9778C2.88732 17.1566 5.33851 15.8727 9.07802 14.35C10.7044 13.6878 12.2408 13.0623 13.2823 12.0141C14.1103 11.2028 14.6506 10.0249 15.2223 8.77812C15.6454 7.8555 16.0829 6.90155 16.581 6.27859C17.0472 5.69572 17.5343 5.71434 17.5381 5.71434C17.8163 5.72895 18.1015 5.89232 18.2645 6.13055C18.4145 6.34979 18.4456 6.60373 18.3569 6.88519C18.079 7.76845 17.9785 8.85539 18.0666 10.0283C18.178 11.5142 19.1073 12.7586 20.4921 13.2757C21.8837 13.7954 23.3973 13.4584 24.4463 12.3918L33.683 2.92611L34.5762 3.76189C35.1615 4.30964 36.0749 4.27356 36.6163 3.68127C37.1576 3.08905 37.1218 2.1649 36.5365 1.61716ZM19.6338 20.2475C20.0032 20.2475 20.3727 20.1048 20.6547 19.8197C21.2184 19.2492 21.2184 18.3244 20.6547 17.754L17.0455 14.1024C16.4817 13.5319 15.5676 13.5319 15.0038 14.1024C14.4401 14.6728 14.4401 15.5977 15.0038 16.168L18.613 19.8197C18.8948 20.1048 19.2643 20.2475 19.6338 20.2475ZM6.91925 22.355C6.3555 22.9255 6.3555 23.8503 6.91925 24.4207L10.5284 28.0723C10.8103 28.3575 11.1798 28.5001 11.5493 28.5001C11.9188 28.5001 12.2882 28.3575 12.5702 28.0723C13.1339 27.5018 13.1339 26.577 12.5702 26.0067L8.96101 22.355C8.39719 21.7846 7.48307 21.7846 6.91925 22.355Z" fill="url(#paint0_linear)"></path><defs><linearGradient id="paint0_linear" x1="-16.7212" y1="74.2857" x2="174.627" y2="53.7181" gradientUnits="userSpaceOnUse"><stop stop-color="#FF162E"></stop><stop offset="0.520833" stop-color="#E9A91F"></stop><stop offset="1" stop-color="#FFF100"></stop></linearGradient></defs></svg> 