<svg width="25" height="23" viewBox="0 0 25 23" fill="none" xmlns="http://www.w3.org/2000/svg">
<path d="M12.2667 7.66666C12.796 7.66666 13.225 7.2376 13.225 6.70833C13.225 6.17906 12.796 5.75 12.2667 5.75C11.7374 5.75 11.3083 6.17906 11.3083 6.70833C11.3083 7.2376 11.7374 7.66666 12.2667 7.66666Z" fill="url(#paint0_linear)"/>
<path d="M22.7293 4.03977C22.7293 4.03977 13.336 0.205775 13.3339 0.204961C12.6709 -0.0601137 11.9032 -0.0764053 11.1994 0.204961C11.1972 0.205823 1.80396 4.03977 1.80396 4.03977C0.707967 4.47988 0 5.52695 0 6.70838C0 7.88981 0.707967 8.93688 1.80396 9.377C4.02614 10.284 11.1945 13.2099 11.1994 13.2118C11.8624 13.4769 12.6301 13.4932 13.3339 13.2118C13.3387 13.2099 13.0997 13.3074 22.7293 9.377C23.8253 8.93688 24.5333 7.88981 24.5333 6.70838C24.5333 5.52695 23.8253 4.47988 22.7293 4.03977ZM22.0138 7.59891C22.0117 7.59973 12.6199 11.4331 12.6199 11.4331C12.396 11.522 12.1373 11.522 11.9133 11.4331C11.9133 11.4331 2.52151 7.59977 2.51945 7.59891C2.15327 7.45238 1.91666 7.10288 1.91666 6.70838C1.91666 6.31389 2.15327 5.96438 2.51945 5.8179C2.52151 5.81709 11.9133 1.98367 11.9133 1.98367C12.1373 1.89483 12.396 1.89483 12.6199 1.98367C12.6199 1.98367 22.0117 5.81704 22.0138 5.8179C22.38 5.96438 22.6166 6.31393 22.6166 6.70838C22.6166 7.10283 22.38 7.45238 22.0138 7.59891Z" fill="url(#paint1_linear)"/>
<path d="M6.51668 13.4766C5.98739 13.4766 5.55835 13.9056 5.55835 14.4349V14.7591C5.55835 15.9415 6.26775 16.9893 7.36562 17.4284L11.1994 18.9619C11.8695 19.2299 12.637 19.2406 13.3341 18.9619L17.1677 17.4284C18.2656 16.9893 18.975 15.9415 18.975 14.7591V14.4349C18.975 13.9056 18.5459 13.4766 18.0166 13.4766C17.4874 13.4766 17.0583 13.9056 17.0583 14.4349V14.7591C17.0583 15.1533 16.8218 15.5025 16.4559 15.6489L12.6224 17.1823C12.397 17.2724 12.1362 17.2723 11.9111 17.1823L8.07747 15.6489C7.71153 15.5025 7.47506 15.1532 7.47506 14.759V14.4348C7.47501 13.9056 7.04597 13.4766 6.51668 13.4766Z" fill="url(#paint2_linear)"/>
<path d="M22.6166 19.7284V12.9017C22.6166 12.3724 22.1875 11.9434 21.6583 11.9434C21.129 11.9434 20.6999 12.3724 20.6999 12.9017V19.7284L19.064 21.3643C18.6897 21.7386 18.6897 22.3454 19.064 22.7196C19.4382 23.0938 20.045 23.0939 20.4192 22.7196L21.6583 21.4806L22.8973 22.7196C23.2715 23.0938 23.8783 23.0939 24.2526 22.7196C24.6268 22.3453 24.6268 21.7386 24.2526 21.3643L22.6166 19.7284Z" fill="url(#paint3_linear)"/>
<defs>
<linearGradient id="paint0_linear" x1="10.4422" y1="9.81801" x2="20.3662" y2="8.80896" gradientUnits="userSpaceOnUse">
<stop stop-color="#FF162E"/>
<stop offset="0.520833" stop-color="#E9A91F"/>
<stop offset="1" stop-color="#FFF100"/>
</linearGradient>
<linearGradient id="paint1_linear" x1="-11.0871" y1="28.4764" x2="112.966" y2="5.41202" gradientUnits="userSpaceOnUse">
<stop stop-color="#FF162E"/>
<stop offset="0.520833" stop-color="#E9A91F"/>
<stop offset="1" stop-color="#FFF100"/>
</linearGradient>
<linearGradient id="paint2_linear" x1="-0.504935" y1="25.554" x2="65.867" y2="9.64235" gradientUnits="userSpaceOnUse">
<stop stop-color="#FF162E"/>
<stop offset="0.520833" stop-color="#E9A91F"/>
<stop offset="1" stop-color="#FFF100"/>
</linearGradient>
<linearGradient id="paint3_linear" x1="16.1847" y1="35.4111" x2="46.1809" y2="33.825" gradientUnits="userSpaceOnUse">
<stop stop-color="#FF162E"/>
<stop offset="0.520833" stop-color="#E9A91F"/>
<stop offset="1" stop-color="#FFF100"/>
</linearGradient>
</defs>
</svg>
