<svg width="40" height="47" viewBox="0 0 40 47" fill="none" xmlns="http://www.w3.org/2000/svg">
<path fill-rule="evenodd" clip-rule="evenodd" d="M18.1858 0.101192C14.0787 0.569732 10.1384 2.69506 7.49942 5.86547C4.05489 10.0033 2.83124 15.3551 4.14518 20.5351C5.22433 24.7894 8.0286 29.5052 12.5047 34.5928C14.1483 36.4609 16.2928 38.6673 16.8522 39.0656C18.7057 40.3852 21.1758 40.4306 23.0201 39.179C23.603 38.7833 25.7022 36.6431 27.4455 34.667C34.046 27.1852 36.9512 20.6762 36.3112 14.8042C36.0937 12.8085 35.606 11.1187 34.7287 9.32066C34.0133 7.85443 33.2843 6.74396 32.2883 5.60301C28.7843 1.58947 23.4347 -0.497571 18.1858 0.101192ZM22.5773 3.94659C25.1202 4.48547 27.0909 5.5727 28.9849 7.48176C30.524 9.03294 31.5171 10.6331 32.1213 12.5349C33.2836 16.1928 32.8451 19.6305 30.6809 23.8305C28.8946 27.2972 25.6268 31.5431 21.9063 35.2316C20.792 36.3363 20.4208 36.5391 19.7461 36.4115C19.1962 36.3076 19.0048 36.1545 17.5463 34.6532C12.2021 29.1521 8.82675 24.0274 7.70233 19.7077C6.75594 16.0717 7.37751 12.4627 9.50299 9.25307C10.0571 8.41646 11.4562 6.93957 12.2985 6.30233C14.0723 4.96044 16.217 4.06974 18.3866 3.77403C19.3861 3.63784 21.5385 3.72646 22.5773 3.94659ZM18.4354 7.48534C16.5521 7.84506 14.9051 8.71547 13.5796 10.0515C10.023 13.6362 10.0233 19.4229 13.5805 23.0082C14.7197 24.1565 16.306 25.0604 17.8724 25.4537C18.9627 25.7276 20.8923 25.748 21.967 25.4971C27.7461 24.1477 30.7833 17.7489 28.1545 12.461C26.9439 10.026 24.7647 8.26557 22.1492 7.61006C21.1699 7.36467 19.3817 7.30461 18.4354 7.48534ZM21.3204 11.201C22.3497 11.4664 23.0487 11.874 23.8379 12.6695C24.6271 13.465 25.0316 14.1695 25.2949 15.2069C25.6243 16.5056 25.452 17.9199 24.8165 19.1299C24.4219 19.8812 23.3183 20.9956 22.5878 21.3802C21.3764 22.018 19.9803 22.1895 18.6957 21.8584C17.6664 21.593 16.9674 21.1853 16.1782 20.3899C15.389 19.5944 14.9845 18.8898 14.7212 17.8525C14.3925 16.5568 14.5631 15.1479 15.1966 13.9295C15.5842 13.1838 16.6891 12.0704 17.4297 11.6793C18.6384 11.041 20.0341 10.8695 21.3204 11.201ZM4.02592 32.1373C2.27773 33.0642 0.679245 34.815 0.21056 36.3162C-0.08492 37.2631 -0.0678821 38.5611 0.252016 39.4586C1.60441 43.2529 7.4483 46.0218 15.8169 46.8334C17.5863 47.0049 20.9193 47.0535 22.7414 46.9343C31.8694 46.3369 38.3158 43.5061 39.7652 39.4586C39.963 38.906 40.001 38.6438 40 37.8353C39.9986 36.7351 39.8138 36.0638 39.2574 35.1385C38.3653 33.6547 36.0878 31.8629 35.1007 31.8681C34.0137 31.8739 33.0909 32.9395 33.2664 33.9865C33.3467 34.4656 33.6382 34.8781 34.1691 35.264C35.7629 36.4221 36.2442 36.9363 36.3706 37.6152C36.6654 39.1994 33.4493 41.2559 28.9827 42.3395C27.5752 42.6809 26.0818 42.9369 24.351 43.1336C22.4151 43.3535 17.601 43.3535 15.6651 43.1336C12.0776 42.7261 9.20314 41.9959 6.92495 40.9135C4.67355 39.8438 3.45819 38.6214 3.64552 37.6152C3.77189 36.9363 4.25324 36.4221 5.84699 35.264C6.38729 34.8714 6.66145 34.4766 6.74063 33.9775C6.9091 32.9156 6.00781 31.8739 4.91536 31.8681C4.66981 31.8668 4.35802 31.9611 4.02592 32.1373Z" fill="url(#paint0_linear_902_4)"/>
<defs>
<linearGradient id="paint0_linear_902_4" x1="-18.0769" y1="99.7551" x2="189.62" y2="81.7821" gradientUnits="userSpaceOnUse">
<stop stop-color="#FF162E"/>
<stop offset="0.520833" stop-color="#E9A91F"/>
<stop offset="1" stop-color="#FFF100"/>
</linearGradient>
</defs>
</svg>
