<?xml version="1.0" encoding="UTF-8"?> <svg xmlns="http://www.w3.org/2000/svg" width="64" height="49" viewBox="0 0 64 49" fill="none"><path d="M28.9 18.7H34.9C35.9 18.7 36.7 17.9 36.7 16.8C36.7 15.8 35.9 15 34.9 15H28.9C27.9 15 27.1 15.8 27.1 16.8C27 17.9 27.8 18.7 28.9 18.7Z" fill="url(#paint0_linear)"></path><path d="M28.9 11.7H34.9C35.9 11.7 36.7 10.9 36.7 9.8C36.7 8.7 35.9 8 34.9 8H28.9C27.9 8 27.1 8.8 27.1 9.8C27.1 10.8 27.8 11.7 28.9 11.7Z" fill="url(#paint1_linear)"></path><path d="M49.9 20C48.9 20 48.1 20.8 48.1 21.8V24.8C48.1 31.5 42.7 37 35.9 37H27.9C21.2 37 15.7 31.6 15.7 24.8V21.8C15.7 20.8 14.9 20 13.9 20C12.9 20 12 20.8 12 21.8V24.8C12 33.6 19.1 40.7 27.8 40.7H30V44.8C30 44.9 30 44.9 30 45H24.8C23.8 45 23 45.8 23 46.8C23 47.8 23.8 48.7 24.8 48.7H38.8C39.8 48.7 40.6 47.9 40.6 46.8C40.6 45.8 39.8 45 38.8 45H33.6C33.6 44.9 33.6 44.9 33.6 44.8V40.7H35.8C44.6 40.7 51.6 33.6 51.6 24.8V21.8C51.7 20.8 50.9 20 49.9 20Z" fill="url(#paint2_linear)"></path><path d="M28.9 33.7H33.9C39.9 33.7 44.7 28.8 44.7 22.8V10.8C44.7 4.8 39.8 0 33.9 0H29.9C23.9 0 19.1 4.9 19.1 10.8V23.8C19 29.3 23.4 33.7 28.9 33.7ZM22.7 10.8C22.7 6.9 25.9 3.7 29.9 3.7H33.9C37.8 3.7 41.1 6.9 41.1 10.8V22.8C41.1 26.7 37.9 30 33.9 30H28.9C25.5 30 22.7 27.2 22.7 23.8V10.8Z" fill="url(#paint3_linear)"></path><path d="M28.9 25.7H34.9C35.9 25.7 36.7 24.9 36.7 23.8C36.7 22.8 35.9 22 34.9 22H28.9C27.9 22 27.1 22.8 27.1 23.8C27 24.9 27.8 25.7 28.9 25.7Z" fill="url(#paint4_linear)"></path><defs><linearGradient id="paint0_linear" x1="-5.89998" y1="103.363" x2="199.897" y2="86.3446" gradientUnits="userSpaceOnUse"><stop stop-color="#FF162E"></stop><stop offset="0.520833" stop-color="#E9A91F"></stop><stop offset="1" stop-color="#FFF100"></stop></linearGradient><linearGradient id="paint1_linear" x1="-5.89998" y1="103.363" x2="199.897" y2="86.3446" gradientUnits="userSpaceOnUse"><stop stop-color="#FF162E"></stop><stop offset="0.520833" stop-color="#E9A91F"></stop><stop offset="1" stop-color="#FFF100"></stop></linearGradient><linearGradient id="paint2_linear" x1="-5.89998" y1="103.363" x2="199.897" y2="86.3446" gradientUnits="userSpaceOnUse"><stop stop-color="#FF162E"></stop><stop offset="0.520833" stop-color="#E9A91F"></stop><stop offset="1" stop-color="#FFF100"></stop></linearGradient><linearGradient id="paint3_linear" x1="-5.89998" y1="103.363" x2="199.897" y2="86.3446" gradientUnits="userSpaceOnUse"><stop stop-color="#FF162E"></stop><stop offset="0.520833" stop-color="#E9A91F"></stop><stop offset="1" stop-color="#FFF100"></stop></linearGradient><linearGradient id="paint4_linear" x1="-5.89998" y1="103.363" x2="199.897" y2="86.3446" gradientUnits="userSpaceOnUse"><stop stop-color="#FF162E"></stop><stop offset="0.520833" stop-color="#E9A91F"></stop><stop offset="1" stop-color="#FFF100"></stop></linearGradient></defs></svg> 