<?xml version="1.0" encoding="UTF-8"?> <svg xmlns="http://www.w3.org/2000/svg" width="64" height="49" viewBox="0 0 64 49" fill="none"><path d="M44.5156 0H18.4844C12.1519 0 7 5.15189 7 11.4844V37.5156C7 43.8481 12.1519 49 18.4844 49H44.5156C50.8481 49 56 43.8481 56 37.5156V11.4844C56 5.15189 50.8481 0 44.5156 0ZM52.1719 37.5156C52.1719 41.7373 48.7373 45.1719 44.5156 45.1719H18.4844C14.2627 45.1719 10.8281 41.7373 10.8281 37.5156V11.4844C10.8281 7.26272 14.2627 3.82812 18.4844 3.82812H44.5156C48.7373 3.82812 52.1719 7.26272 52.1719 11.4844V37.5156ZM48.5352 22.0117C48.5352 23.0689 47.6782 23.9258 46.6211 23.9258H45.6641V38.5684C45.6641 39.6255 44.8071 40.4824 43.75 40.4824C42.6929 40.4824 41.8359 39.6255 41.8359 38.5684V23.9258H38.3906V38.5684C38.3906 39.6255 37.5337 40.4824 36.4766 40.4824C35.4194 40.4824 34.5625 39.6255 34.5625 38.5684V23.9258H28.2461V38.5684C28.2461 39.6255 27.3892 40.4824 26.332 40.4824C25.2749 40.4824 24.418 39.6255 24.418 38.5684V23.9258H20.9727V38.5684C20.9727 39.6255 20.1157 40.4824 19.0586 40.4824C18.0015 40.4824 17.1445 39.6255 17.1445 38.5684V23.9258H16.3789C15.3218 23.9258 14.4648 23.0689 14.4648 22.0117C14.4648 20.9546 15.3218 20.0977 16.3789 20.0977H46.6211C47.6782 20.0977 48.5352 20.9546 48.5352 22.0117ZM24.0352 12.4414C24.0352 11.3843 24.8921 10.5273 25.9492 10.5273H37.0508C38.1079 10.5273 38.9648 11.3843 38.9648 12.4414C38.9648 13.4985 38.1079 14.3555 37.0508 14.3555H25.9492C24.8921 14.3555 24.0352 13.4985 24.0352 12.4414ZM16.3789 12.4414C16.3789 11.12 17.4501 10.0488 18.7715 10.0488C20.0929 10.0488 21.1641 11.12 21.1641 12.4414C21.1641 13.7628 20.0929 14.834 18.7715 14.834C17.4501 14.834 16.3789 13.7628 16.3789 12.4414ZM41.8359 12.4414C41.8359 11.12 42.9071 10.0488 44.2285 10.0488C45.5499 10.0488 46.6211 11.12 46.6211 12.4414C46.6211 13.7628 45.5499 14.834 44.2285 14.834C42.9071 14.834 41.8359 13.7628 41.8359 12.4414Z" fill="url(#paint0_linear)"></path><defs><linearGradient id="paint0_linear" x1="-15.1442" y1="104" x2="238.567" y2="78.2031" gradientUnits="userSpaceOnUse"><stop stop-color="#FF162E"></stop><stop offset="0.520833" stop-color="#E9A91F"></stop><stop offset="1" stop-color="#FFF100"></stop></linearGradient></defs></svg> 