<?xml version="1.0" encoding="UTF-8"?> <svg xmlns="http://www.w3.org/2000/svg" xmlns:xlink="http://www.w3.org/1999/xlink" id="Слой_1" data-name="Слой 1" viewBox="0 0 47.73 47.5"><defs><style> .cls-1, .cls-2, .cls-3, .cls-4, .cls-5, .cls-6, .cls-7 { fill-rule: evenodd; } .cls-1 { fill: url(#Безымянный_градиент); } .cls-2 { fill: url(#Безымянный_градиент_2); } .cls-3 { fill: url(#Безымянный_градиент_3); } .cls-4 { fill: url(#Безымянный_градиент_4); } .cls-5 { fill: url(#Безымянный_градиент_5); } .cls-6 { fill: url(#Безымянный_градиент_6); } .cls-7 { fill: url(#Безымянный_градиент_7); } </style><linearGradient id="Безымянный_градиент" data-name="Безымянный градиент" x1="-28.23" y1="14.35" x2="218.88" y2="39.59" gradientTransform="matrix(1, 0, 0, -1, 0, 50)" gradientUnits="userSpaceOnUse"><stop offset="0" stop-color="#ff162e"></stop><stop offset="0.52" stop-color="#e9a91f"></stop><stop offset="1" stop-color="#fff100"></stop></linearGradient><linearGradient id="Безымянный_градиент_2" data-name="Безымянный градиент 2" x1="-29.91" y1="30.77" x2="217.2" y2="56.02" xlink:href="#Безымянный_градиент"></linearGradient><linearGradient id="Безымянный_градиент_3" data-name="Безымянный градиент 3" x1="-29.85" y1="30.2" x2="217.26" y2="55.45" xlink:href="#Безымянный_градиент"></linearGradient><linearGradient id="Безымянный_градиент_4" data-name="Безымянный градиент 4" x1="-29.18" y1="23.68" x2="217.93" y2="48.93" xlink:href="#Безымянный_градиент"></linearGradient><linearGradient id="Безымянный_градиент_5" data-name="Безымянный градиент 5" x1="-28.52" y1="17.17" x2="218.59" y2="42.41" xlink:href="#Безымянный_градиент"></linearGradient><linearGradient id="Безымянный_градиент_6" data-name="Безымянный градиент 6" x1="-28.97" y1="21.58" x2="218.14" y2="46.83" xlink:href="#Безымянный_градиент"></linearGradient><linearGradient id="Безымянный_градиент_7" data-name="Безымянный градиент 7" x1="-29" y1="21.92" x2="218.11" y2="47.17" xlink:href="#Безымянный_градиент"></linearGradient></defs><title>sax-2</title><path class="cls-1" d="M20.23,32.92H13.64V29.16h6.59Z" transform="translate(0)"></path><path class="cls-2" d="M24.93,16H15.52V12.23h9.41Z" transform="translate(0)"></path><path class="cls-3" d="M25.87,11.29a1.88,1.88,0,0,1,1.88,1.88v1.88a1.88,1.88,0,1,1-3.76,0V13.17A1.88,1.88,0,0,1,25.87,11.29Z" transform="translate(0)"></path><path class="cls-4" d="M25.87,17.87a1.88,1.88,0,0,1,1.88,1.88v1.88a1.88,1.88,0,0,1-3.76,0V19.75A1.88,1.88,0,0,1,25.87,17.87Z" transform="translate(0)"></path><path class="cls-5" d="M25.87,24.46a1.88,1.88,0,0,1,1.88,1.88v1.88a1.88,1.88,0,1,1-3.76,0V26.34A1.88,1.88,0,0,1,25.87,24.46Z" transform="translate(0)"></path><path class="cls-6" d="M.22,3.91A2.82,2.82,0,0,1,2.82,0h8.47A11.29,11.29,0,0,1,22.58,11.29v20a3.53,3.53,0,1,0,7.05,0V26.12a11.33,11.33,0,0,1,1.61-5.81l1.48-2.47L36,19.78l-1.48,2.47a7.46,7.46,0,0,0-1.08,3.87v5.15a7.29,7.29,0,1,1-14.58,0v-20a7.52,7.52,0,0,0-7.52-7.53h-7l.82,2,5.17.45a6.58,6.58,0,0,1,6,6.89L15.08,35.83a7.53,7.53,0,0,0,7.51,7.91h7.65a7.43,7.43,0,0,0,7.46-7.4c0-1.1,0-2.19,0-3.19a11.77,11.77,0,0,1,1.94-6.62l1.14-1.71,3.13,2.09-1.13,1.71a7.87,7.87,0,0,0-1.31,4.49c0,1,0,2.12,0,3.24A11.19,11.19,0,0,1,30.24,47.5H22.59A11.3,11.3,0,0,1,11.32,35.64L12.47,12.9A2.81,2.81,0,0,0,9.9,10l-5.73-.5A2.81,2.81,0,0,1,1.81,7.72Z" transform="translate(0)"></path><path class="cls-7" d="M35.49,19.27a.28.28,0,0,1,0-.4L37,17.14a.28.28,0,0,1,.4,0l6.48,5.73a.28.28,0,0,1,0,.4L42.37,25a.28.28,0,0,1-.4,0Zm-2.85-2.89,1.53-1.73a4,4,0,0,1,5.71-.35L46.36,20a4,4,0,0,1,.35,5.71l-1.52,1.73a4,4,0,0,1-5.71.35L33,22.08A4,4,0,0,1,32.64,16.38Z" transform="translate(0)"></path></svg> 